<svg viewBox="0 0 1500 326" fill="none" xmlns="http://www.w3.org/2000/svg">
<g clip-path="url(#clip0_302_84)">
<g filter="url(#filter0_f_302_84)">
<path d="M-47.1582 356.199V258.27C83.5395 306.631 462.167 364.18 931.094 207.491C1400.02 50.8021 1570.06 86.5887 1596.46 124.068V356.199H-47.1582Z" fill="url(#paint0_linear_302_84)"/>
</g>
<g filter="url(#filter1_f_302_84)">
<path d="M-48.9688 314.129V216.2C81.729 264.561 652.179 354.696 1105.59 157.563C1548.71 -35.0963 1676.12 276.65 1702.53 314.129L1594.65 314.129H-48.9688Z" fill="url(#paint1_linear_302_84)"/>
</g>
<g filter="url(#filter2_f_302_84)">
<path d="M1597.6 103.165V182.684C1598.53 184.347 1598.48 186.033 1597.6 187.688V182.684C1587.64 164.928 1465.73 149.831 1051.81 204.593C485.945 279.457 96.9169 318.097 -48.9688 252.892V221.498C55.6562 257.722 416.097 297.81 1020.86 168.369C1625.62 38.9277 1597.6 79.0391 1597.6 103.165Z" fill="#D43BB5"/>
</g>
<g filter="url(#filter3_f_302_84)">
<path d="M1597.6 159.224V238.743C1598.53 240.406 1598.48 242.092 1597.6 243.746V238.743C1587.64 220.987 1465.73 205.89 1051.81 260.652C485.945 335.515 96.9169 374.155 -48.9688 308.951V277.557C55.6562 313.781 416.097 353.869 1020.86 224.428C1625.62 94.9863 1597.6 135.098 1597.6 159.224Z" fill="#D43BB5"/>
</g>
<g filter="url(#filter4_f_302_84)">
<path d="M1336.81 125.338C1245.9 156.94 585.182 237.025 318.822 259.127C602.481 246.199 1848.02 208.699 1850.54 163.291C1853.06 117.882 1376.36 117.834 1336.81 125.338Z" fill="url(#paint2_linear_302_84)"/>
</g>
</g>
<defs>
<filter id="filter0_f_302_84" x="-110.558" y="28.4223" width="1770.42" height="391.177" filterUnits="userSpaceOnUse" color-interpolation-filters="sRGB">
<feFlood flood-opacity="0" result="BackgroundImageFix"/>
<feBlend mode="normal" in="SourceGraphic" in2="BackgroundImageFix" result="shape"/>
<feGaussianBlur stdDeviation="31.7" result="effect1_foregroundBlur_302_84"/>
</filter>
<filter id="filter1_f_302_84" x="-112.369" y="31.7953" width="1878.3" height="345.734" filterUnits="userSpaceOnUse" color-interpolation-filters="sRGB">
<feFlood flood-opacity="0" result="BackgroundImageFix"/>
<feBlend mode="normal" in="SourceGraphic" in2="BackgroundImageFix" result="shape"/>
<feGaussianBlur stdDeviation="31.7" result="effect1_foregroundBlur_302_84"/>
</filter>
<filter id="filter2_f_302_84" x="-112.369" y="14.3812" width="1774.05" height="335.118" filterUnits="userSpaceOnUse" color-interpolation-filters="sRGB">
<feFlood flood-opacity="0" result="BackgroundImageFix"/>
<feBlend mode="normal" in="SourceGraphic" in2="BackgroundImageFix" result="shape"/>
<feGaussianBlur stdDeviation="31.7" result="effect1_foregroundBlur_302_84"/>
</filter>
<filter id="filter3_f_302_84" x="-112.369" y="70.4398" width="1774.05" height="335.118" filterUnits="userSpaceOnUse" color-interpolation-filters="sRGB">
<feFlood flood-opacity="0" result="BackgroundImageFix"/>
<feBlend mode="normal" in="SourceGraphic" in2="BackgroundImageFix" result="shape"/>
<feGaussianBlur stdDeviation="31.7" result="effect1_foregroundBlur_302_84"/>
</filter>
<filter id="filter4_f_302_84" x="265.922" y="68.7367" width="1637.53" height="243.29" filterUnits="userSpaceOnUse" color-interpolation-filters="sRGB">
<feFlood flood-opacity="0" result="BackgroundImageFix"/>
<feBlend mode="normal" in="SourceGraphic" in2="BackgroundImageFix" result="shape"/>
<feGaussianBlur stdDeviation="26.45" result="effect1_foregroundBlur_302_84"/>
</filter>
<linearGradient id="paint0_linear_302_84" x1="-47.1582" y1="224.011" x2="1596.46" y2="224.011" gradientUnits="userSpaceOnUse">
<stop stop-color="#EB6B50"/>
<stop offset="1" stop-color="#E87E34"/>
</linearGradient>
<linearGradient id="paint1_linear_302_84" x1="-48.9688" y1="181.94" x2="1594.65" y2="181.94" gradientUnits="userSpaceOnUse">
<stop stop-color="#EB6B50"/>
<stop offset="1" stop-color="#E87E34"/>
</linearGradient>
<linearGradient id="paint2_linear_302_84" x1="700.549" y1="221.496" x2="1843.13" y2="111.252" gradientUnits="userSpaceOnUse">
<stop offset="0.375" stop-color="#3C32FF"/>
<stop offset="1" stop-color="#9A35BD"/>
</linearGradient>
<clipPath id="clip0_302_84">
<rect width="1500" height="326" fill="white"/>
</clipPath>
</defs>
</svg>
