<svg viewBox="0 0 475 415" fill="none" xmlns="http://www.w3.org/2000/svg">
<g clip-path="url(#clip0_365_259)">
<path d="M199.388 68.7541H158.328V9.80273H173.169V56.634H199.388V68.7541Z" fill="white"/>
<path d="M244.221 49.2136V51.1924H213.879C213.879 57.0463 218.002 60.2618 222.949 60.2618C227.648 60.2618 229.627 58.1181 230.451 55.9744H243.891C241.5 64.5492 234.491 70.1558 222.619 70.1558C208.932 70.1558 200.687 60.839 200.687 47.647C200.687 35.2796 208.437 25.1383 222.619 25.1383C236.965 25.1383 244.221 33.6306 244.221 49.2136ZM213.962 43.0299H230.946C230.946 37.5882 227.731 34.7025 222.619 34.7025C217.589 34.7025 214.291 37.5882 213.962 43.0299Z" fill="white"/>
<path d="M269.819 59.6847C271.056 59.6847 271.798 59.6022 273.364 59.3549V68.6717C270.561 69.3313 268.17 69.5786 265.532 69.5786C256.297 69.5786 252.34 65.3737 252.34 55.0675V36.4339H246.486V26.54H252.34V14.7497H265.532V26.54H272.87V36.4339H265.532V54.7377C265.532 59.2724 267.263 59.6847 269.819 59.6847Z" fill="white"/>
<path d="M297.789 70.0733C283.03 70.0733 277.259 62.9826 276.929 54.7377H289.297C289.709 58.9426 292.512 61.0039 297.541 61.0039C301.417 61.0039 303.148 59.7671 303.148 57.3761C303.148 53.5834 298.943 53.1712 292.842 51.7695C285.421 50.0381 277.754 47.0699 277.754 38.4952C277.754 30.58 284.35 25.2208 296.222 25.2208C309.744 25.2208 315.021 32.0641 315.433 39.4845H303.066C302.653 36.1041 300.839 34.2902 296.47 34.2902C292.842 34.2902 291.275 35.6094 291.275 37.6707C291.275 40.4739 293.749 40.6388 300.097 42.1229C308.425 44.1017 316.67 46.5752 316.67 56.3867C316.67 65.2088 309.991 70.0733 297.789 70.0733Z" fill="white"/>
<path d="M99.2912 390.59H84.4503V343.759H67.3008V331.639H116.358V343.759H99.2912V390.59Z" fill="white"/>
<path d="M132.415 391.992C118.481 391.992 109.988 382.922 109.988 369.565C109.988 356.291 118.481 346.974 132.662 346.974C146.596 346.974 155.088 356.044 155.088 369.318C155.088 382.675 146.596 391.992 132.415 391.992ZM132.58 382.098C138.433 382.098 141.731 377.645 141.731 369.483C141.731 361.32 138.433 356.868 132.58 356.868C126.643 356.868 123.345 361.32 123.345 369.483C123.345 377.645 126.643 382.098 132.58 382.098Z" fill="white"/>
<path d="M188.301 352.581V348.376H201.492V385.561C201.492 400.649 193.33 405.678 180.385 405.678C167.276 405.678 161.175 398.753 159.691 391.992H173.047C173.872 394.3 175.768 396.197 180.385 396.197C186.322 396.197 188.301 393.064 188.301 385.561V383.087H188.136C186.487 385.313 182.776 388.611 176.593 388.611C165.792 388.611 158.866 380.037 158.866 367.834C158.866 355.631 165.792 347.057 176.593 347.057C182.776 347.057 186.487 350.355 188.136 352.581H188.301ZM180.22 378.717C185.58 378.717 188.053 374.677 188.053 367.834C188.053 360.991 185.58 356.951 180.22 356.951C174.861 356.951 172.388 360.991 172.388 367.834C172.388 374.677 174.861 378.717 180.22 378.717Z" fill="white"/>
<path d="M250.384 371.05V373.028H220.042C220.042 378.882 224.165 382.098 229.112 382.098C233.811 382.098 235.79 379.954 236.615 377.81H250.054C247.663 386.385 240.655 391.992 228.782 391.992C215.095 391.992 206.85 382.675 206.85 369.483C206.85 357.116 214.601 346.974 228.782 346.974C243.128 346.974 250.384 355.467 250.384 371.05ZM220.125 364.866H237.109C237.109 359.424 233.894 356.538 228.782 356.538C223.753 356.538 220.455 359.424 220.125 364.866Z" fill="white"/>
<path d="M275.982 381.521C277.219 381.521 277.961 381.438 279.528 381.191V390.508C276.724 391.167 274.333 391.415 271.695 391.415C262.461 391.415 258.503 387.21 258.503 376.903V358.27H252.649V348.376H258.503V336.586H271.695V348.376H279.033V358.27H271.695V376.574C271.695 381.108 273.426 381.521 275.982 381.521Z" fill="white"/>
<path d="M312.444 347.057C320.607 347.057 326.131 352.416 326.131 362.063V390.59H312.939V366.267C312.939 359.919 310.713 357.775 306.343 357.775C301.314 357.775 298.428 360.331 298.428 366.185V390.59H285.236V331.639H298.428V354.477H298.593C300.819 350.602 304.941 347.057 312.444 347.057Z" fill="white"/>
<path d="M374.863 371.05V373.028H344.522C344.522 378.882 348.644 382.098 353.591 382.098C358.291 382.098 360.27 379.954 361.094 377.81H374.533C372.142 386.385 365.134 391.992 353.261 391.992C339.575 391.992 331.33 382.675 331.33 369.483C331.33 357.116 339.08 346.974 353.261 346.974C367.608 346.974 374.863 355.467 374.863 371.05ZM344.604 364.866H361.589C361.589 359.424 358.373 356.538 353.261 356.538C348.232 356.538 344.934 359.424 344.604 364.866Z" fill="white"/>
<path d="M404.07 348.046C405.224 348.046 406.214 348.046 407.698 348.376V359.919C406.626 359.754 405.884 359.671 404.977 359.671C399.041 359.671 393.599 363.382 393.599 370.967V390.59H380.407V348.376H393.599V355.302H393.764C395.825 350.849 399.453 348.046 404.07 348.046Z" fill="white"/>
<path d="M366.402 151.221C366.18 149.733 366.003 148.654 365.872 147.984C366.96 147.906 368.406 147.722 370.21 147.431C372.001 147.074 373.819 146.676 375.663 146.238C377.574 145.787 379.379 145.322 381.077 144.844C382.763 144.299 384.037 143.766 384.9 143.245C386.627 142.204 387.777 140.86 388.351 139.214C388.912 137.5 389.002 135.846 388.621 134.25C388.306 132.642 387.593 131.287 386.482 130.186C385.424 129.004 384.085 128.505 382.467 128.689C379.018 129.029 375.615 129.604 372.258 130.414C368.967 131.21 365.617 131.879 362.208 132.42C361.589 130.315 361.096 128.324 360.729 126.448C360.429 124.558 360.135 122.702 359.847 120.879C359.613 118.976 359.318 117.119 358.965 115.31C358.664 113.42 358.251 111.483 357.725 109.499C359.648 109.115 361.486 108.818 363.237 108.608C365.041 108.317 366.779 108.04 368.451 107.776C370.189 107.498 371.92 107.188 373.645 106.843C375.357 106.432 377.148 105.9 379.02 105.248C381.475 104.41 383.116 102.933 383.943 100.818C384.837 98.6899 385.041 96.5601 384.555 94.4287C384.121 92.5653 383.329 91.1567 382.177 90.2027C381.079 89.1685 379.807 88.4822 378.363 88.1439C376.905 87.7386 375.36 87.5943 373.729 87.711C372.097 87.8278 370.552 88.0319 369.092 88.3232C364.209 89.4372 359.333 90.4106 354.464 91.2433C349.582 92.009 344.766 92.9356 340.016 94.0231C338.105 94.4742 336.723 95.516 335.871 97.1485C335.072 98.7008 334.902 100.476 335.361 102.473C335.572 103.197 335.816 103.914 336.092 104.625C336.369 105.336 336.58 106.06 336.724 106.797L338.592 116.348C339.313 120.034 340.053 123.995 340.813 128.23L345.886 154.167C346.698 158.322 349.539 171.787 350.273 175.54C350.561 177.015 350.731 178.235 350.782 179.199C350.899 180.151 351.049 181.096 351.233 182.034C351.56 184.058 352.385 185.634 353.708 186.763C355.111 187.945 356.781 188.378 358.718 188.061C363.521 187.241 368.324 186.247 373.128 185.08C377.944 183.979 382.82 183.006 387.755 182.16C389.215 181.868 390.721 181.463 392.274 180.944C393.827 180.425 395.201 179.698 396.397 178.763C397.606 177.895 398.53 176.805 399.169 175.494C399.862 174.102 400.058 172.461 399.757 170.572C399.404 168.414 398.414 166.522 396.787 164.897C395.225 163.259 393.152 162.524 390.565 162.692C388.589 162.808 386.738 163.038 385.013 163.383C383.276 163.66 381.551 164.004 379.839 164.416C378.194 164.814 376.488 165.258 374.723 165.75C373.012 166.161 371.194 166.559 369.27 166.943C368.81 165.294 368.396 163.531 368.029 161.655C367.715 159.698 367.421 157.842 367.147 156.086C366.859 154.263 366.611 152.641 366.402 151.221Z" fill="white"/>
<path d="M302.596 177.135C304.407 176.717 306.349 176.225 308.424 175.658C310.498 175.092 312.573 174.526 314.648 173.96C316.72 173.325 318.761 172.761 320.771 172.266C322.778 171.702 324.619 171.214 326.294 170.802C327.504 170.614 328.715 170.426 329.925 170.238C331.203 170.048 332.421 170.03 333.578 170.187C335.948 170.223 337.98 171.061 339.672 172.699C341.431 174.334 342.527 176.271 342.958 178.509C343.541 181.151 343.372 183.619 342.452 185.915C341.599 188.207 340.013 189.949 337.693 191.141C336.57 191.804 335.374 192.333 334.104 192.729C332.834 193.124 331.594 193.416 330.384 193.603C325.533 194.15 320.797 195 316.175 196.152C311.549 197.236 306.968 198.558 302.43 200.117C297.749 201.477 293.84 201.06 290.703 198.868C287.567 196.675 285.517 192.933 284.554 187.64C284.455 186.892 284.357 186.144 284.258 185.396C284.157 184.58 284.09 183.797 284.059 183.046C283.848 177.926 283.657 172.499 283.488 166.762C283.315 160.957 283.111 155.188 282.873 149.455C282.704 143.718 282.474 138.155 282.183 132.766C281.96 127.374 281.69 122.462 281.371 118.031C281.354 115.98 281.755 114.22 282.574 112.749C283.39 111.211 284.457 110.003 285.774 109.127C287.159 108.248 288.661 107.74 290.28 107.604C291.896 107.399 293.462 107.64 294.98 108.328C296.562 108.945 297.995 110.047 299.279 111.634C300.563 113.221 301.529 115.3 302.176 117.871C302.824 120.442 303.257 123.535 303.474 127.149C303.756 130.693 303.876 134.414 303.834 138.314C303.86 142.21 303.787 146.179 303.616 150.22C303.509 154.191 303.36 157.958 303.169 161.521C302.975 165.017 302.8 168.135 302.642 170.877C302.553 173.616 302.537 175.702 302.596 177.135Z" fill="white"/>
<path d="M243.73 150.798C244.111 144.86 244.63 138.789 245.286 132.583C245.708 128.082 247.369 124.218 250.27 120.994C251.72 119.381 253.263 118.249 254.898 117.597C256.602 116.877 258.263 116.67 259.881 116.974C261.498 117.278 263.006 118.024 264.404 119.212C265.804 120.331 266.89 121.924 267.664 123.988C268.568 126.26 269.032 128.592 269.055 130.984C269.079 133.376 268.899 135.764 268.517 138.148C267.503 145.372 266.525 152.528 265.582 159.616C264.638 166.704 263.728 173.828 262.851 180.985C262.474 183.096 262.232 185.21 262.125 187.326C262.087 189.375 261.981 191.423 261.808 193.47C261.721 194.493 261.635 195.516 261.548 196.54C261.463 197.495 261.31 198.448 261.089 199.401C260.709 201.648 259.831 203.408 258.455 204.68C257.077 206.021 255.407 206.741 253.443 206.84C251.683 206.944 250.034 206.502 248.497 205.517C247.027 204.532 245.973 203.043 245.333 201.049C244.824 199.332 244.418 197.547 244.114 195.697C243.81 193.846 243.54 192.03 243.302 190.249C242.886 187.166 242.641 183.95 242.568 180.601C242.495 177.251 242.524 173.904 242.653 170.558C242.784 167.144 242.949 163.765 243.146 160.421C243.411 157.078 243.606 153.87 243.73 150.798Z" fill="white"/>
<path d="M202.466 126.95C199.255 129.07 196.359 131.318 193.779 133.694C191.199 136.069 188.729 138.548 186.372 141.131C184.097 143.667 181.879 146.255 179.716 148.895C177.553 151.534 175.315 154.188 173.004 156.855C171.55 158.492 170.102 159.492 168.661 159.854C167.304 160.168 165.489 159.994 163.215 159.33C161.35 158.714 159.946 157.842 159.002 156.713C158.057 155.584 157.425 154.226 157.105 152.639C156.659 149.522 156.237 146.447 155.837 143.415C155.522 140.336 155.28 137.243 155.113 134.137C154.929 130.598 154.667 128.069 154.328 126.547C154.073 124.979 153.671 124.293 153.122 124.488C152.592 124.618 151.944 125.531 151.177 127.227C150.494 128.877 149.707 131.136 148.816 134.005C146.801 139.816 145.306 145.78 144.331 151.895C143.439 157.964 142.613 164.052 141.851 170.158C141.699 171.181 141.496 172.259 141.242 173.394C141.006 174.463 140.757 175.457 140.494 176.376C139.895 177.979 139.004 179.247 137.822 180.182C136.639 181.117 135.109 181.666 133.233 181.829C131.291 181.973 129.703 181.616 128.471 180.758C127.219 179.966 126.224 178.893 125.485 177.54C124.727 176.252 124.179 174.847 123.84 173.326C123.501 171.805 123.296 170.429 123.225 169.2C122.719 164.572 122.626 160.1 122.946 155.784C123.349 151.422 123.882 147.098 124.546 142.811C125.784 135.777 127.584 128.871 129.945 122.094C132.371 115.336 135.548 109.152 139.476 103.543C141.948 100.069 144.617 97.5064 147.483 95.8543C150.433 94.1556 153.273 93.4559 156.002 93.7553C158.732 94.0547 161.204 95.3808 163.417 97.7337C165.694 100.106 167.407 103.592 168.554 108.194C170.414 116.702 171.648 124.813 172.256 132.529C175.675 129.19 179.182 125.911 182.777 122.694C186.391 119.412 190.139 116.524 194.02 114.03C197.984 111.49 202.11 109.495 206.397 108.044C210.683 106.594 215.218 105.998 220.001 106.257C223.39 106.464 226.291 107.276 228.701 108.691C231.177 110.125 233.113 111.97 234.508 114.226C235.988 116.436 236.923 118.949 237.314 121.766C237.705 124.582 237.561 127.421 236.884 130.281C235.633 135.391 234.02 140.289 232.046 144.975C230.137 149.68 228.14 154.323 226.054 158.906C224.053 163.441 222.061 167.944 220.078 172.414C218.16 176.903 216.525 181.511 215.173 186.236C214.779 187.614 214.343 189.016 213.865 190.441C213.387 191.865 212.797 193.187 212.097 194.405C210.883 196.681 209.261 198.412 207.232 199.598C205.25 200.868 202.76 201.207 199.761 200.616C196.893 200.063 194.844 198.86 193.614 197.007C192.365 195.221 191.6 193.219 191.319 191.004C191.057 188.723 191.082 186.419 191.396 184.093C191.793 181.72 192.152 179.727 192.473 178.114C193.321 174.166 194.471 170.27 195.922 166.427C197.439 162.603 199.062 158.775 200.792 154.942C202.587 151.129 204.373 147.348 206.149 143.6C208.009 139.805 209.753 136.047 211.38 132.327C212.494 129.665 213.118 127.607 213.252 126.153C213.387 124.699 213.041 123.816 212.215 123.504C211.473 123.145 210.27 123.291 208.605 123.943C206.959 124.529 204.913 125.531 202.466 126.95Z" fill="white"/>
<path fill-rule="evenodd" clip-rule="evenodd" d="M14.2114 301.355L14.2313 301.375L14.2515 301.395C20.3887 307.376 27.9034 311.327 36.72 313.265C44.1716 314.902 51.6566 314.189 59.1085 311.193L59.1356 311.182L59.1625 311.171C66.5972 307.983 72.996 303.189 78.3436 296.824C83.6804 290.472 87.2231 283.543 88.9047 276.047C90.9756 266.816 90.251 257.555 86.7801 248.327C83.739 240.241 79.2121 231.256 73.2311 221.381C78.4732 220.87 84.8133 220.905 92.2832 221.519L92.3113 221.521L92.3394 221.523C101.778 222.089 110.292 223.213 117.892 224.883C131.463 227.866 143.826 232.14 154.993 237.692C155.765 238.099 156.581 238.514 157.441 238.939C188.777 254.398 234.161 268.895 309.313 254.37L309.367 254.359L309.421 254.348C384.5 239.093 431.367 196.075 446.458 180.587C455.067 184.803 464.152 184.476 467.565 184.205C469.303 184.066 470.78 183.249 471.813 182.419C472.883 181.559 473.882 180.366 474.488 178.931C475.064 177.569 475.44 175.541 474.413 173.598C473.234 171.369 470.96 170.613 469.05 170.765C465.069 171.082 454.639 171.106 448.108 163.876C441.73 156.493 442.592 145.722 443.169 141.548C443.417 139.752 442.908 137.431 440.784 136.057C438.872 134.819 436.762 135.094 435.354 135.616C433.878 136.162 432.646 137.128 431.751 138.162C430.879 139.169 430.028 140.593 429.795 142.281C429.3 145.858 428.18 156.009 432.304 165.659C431.914 165.967 431.54 166.304 431.186 166.669C417.995 180.284 374.936 220.238 305.768 234.309C237.142 247.556 192.216 232.872 166.634 220.004C166.186 219.771 165.68 219.533 165.127 219.296C151.268 212.515 136.422 207.388 120.598 203.91C98.253 198.998 78.3024 198.425 60.8122 202.32C57.9444 197.805 56.1073 194.667 55.2323 192.837L55.206 192.782L55.177 192.728C52.3994 187.568 50.4104 183.506 49.1796 180.512L49.135 180.403L49.0807 180.3C42.789 168.269 38.7902 159.69 36.9904 154.466C35.4872 149.553 35.3209 144.423 36.5309 139.029C39.5208 125.702 44.9328 117.296 52.3624 113.078C60.3033 108.738 68.9512 107.577 78.4379 109.662C83.4344 110.76 86.7624 112.88 88.7936 115.814C90.793 118.702 91.4364 122.33 90.3914 126.989C89.8242 129.517 88.4278 132.721 86.0524 136.644C84.8237 138.674 83.87 140.298 83.2005 141.505C82.8668 142.107 82.5908 142.628 82.3829 143.057C82.2109 143.412 81.976 143.919 81.8683 144.399C81.3968 146.501 81.4872 148.605 82.1317 150.666L82.1992 150.882L82.3035 151.082C83.2825 152.964 84.6904 154.45 86.5228 155.447C87.7869 156.194 89.0391 156.769 90.238 157.033C92.3848 157.505 94.4818 157.47 96.4214 156.748C98.3687 156.023 99.9406 154.684 101.162 152.915C105.853 146.252 109.048 139.211 110.71 131.801C112.981 121.679 111.636 112.518 106.505 104.52C101.571 96.5428 93.8568 91.4827 83.6591 89.2412C73.8685 87.0893 64.3303 87.1453 55.078 89.441C45.7242 91.7618 37.5584 96.6473 30.6077 104.02C23.5866 111.468 18.7676 121.354 16.0373 133.525C13.4762 144.941 13.9265 155.668 17.483 165.634C20.9298 175.292 26.0767 185.712 32.8908 196.888L32.8968 196.898L36.4727 202.883L40.0975 209.137L38.413 209.979L38.3873 209.993C29.4 214.746 21.4615 220.856 14.582 228.316L14.5655 228.334L14.5494 228.352C7.83139 235.921 3.43393 244.101 1.46307 252.886C-0.576851 261.979 -0.489806 270.804 1.76307 279.323C4.01454 287.836 8.16622 295.196 14.2114 301.355ZM57.8295 287.599C63.2002 282.879 66.5681 277.287 68.0268 270.785C69.2692 265.247 68.3895 258.723 65.0386 251.086C61.8351 243.785 57.3346 235.776 51.512 227.056C44.4143 230.094 38.142 234.277 32.6787 239.609C26.9996 245.24 23.618 250.985 22.3061 256.833C20.2698 265.91 21.1392 273.621 24.6769 280.148C28.1911 286.633 33.6839 290.702 41.3824 292.394C47.1917 293.671 52.6078 292.189 57.8295 287.599Z" fill="white"/>
</g>
<defs>
<clipPath id="clip0_365_259">
<rect width="475" height="415" fill="white"/>
</clipPath>
</defs>
</svg>
