<svg  width="152" height="43" viewBox="0 0 152 43" fill="none" xmlns="http://www.w3.org/2000/svg">
<path d="M321.233 143.816C318.763 143.291 317.159 141.727 316.422 139.122C315.685 136.517 316.387 132.872 318.53 128.186L333.668 95.9042C335.069 93.0193 335.62 90.933 335.32 89.6452C335.088 88.372 334.492 87.6334 333.532 87.4294C332.16 87.138 330.35 87.896 328.102 89.7034C325.87 91.4327 323.37 93.9209 320.601 97.1681C317.901 100.43 315.127 104.206 312.28 108.498C309.432 112.789 306.681 117.305 304.025 122.045C301.369 126.785 299.004 131.505 296.93 136.206C296.542 137.021 295.97 137.349 295.216 137.188L291.203 136.336C290.242 136.132 289.973 135.544 290.394 134.573L309.588 90.7896C310.852 87.8756 311.369 85.782 311.137 84.5088C310.974 83.2501 310.413 82.5188 309.452 82.3148C308.149 82.038 306.373 82.8032 304.125 84.6106C301.894 86.3399 299.428 88.8355 296.727 92.0972C294.027 95.359 291.253 99.1356 288.406 103.427C285.558 107.718 282.807 112.234 280.151 116.974C277.495 121.714 275.164 126.442 273.159 131.157C272.771 131.972 272.199 132.299 271.445 132.139L267.226 131.243C266.265 131.039 265.996 130.451 266.417 129.48L286.119 84.8254C286.827 83.1805 287.143 81.8604 287.068 80.8652C287.078 79.8064 286.568 79.1677 285.539 78.9492C284.304 78.6869 282.708 79.4495 280.751 81.2371C278.879 82.9612 276.403 86.5155 273.324 91.9C272.834 92.8568 272.246 93.2623 271.56 93.1166C270.531 92.898 270.406 92.137 271.184 90.8336C273.838 85.7666 276.311 81.8854 278.605 79.19C280.967 76.5091 283.138 74.7262 285.118 73.8412C287.099 72.9562 288.809 72.6667 290.25 72.9727C292.514 73.4536 293.919 74.772 294.464 76.928C295.027 79.006 294.398 82.1365 292.577 86.3195L287.318 98.4221C287.133 98.9541 287.17 99.2883 287.427 99.4247C287.685 99.561 287.967 99.4168 288.272 98.9921C294.241 90.4676 299.236 84.6738 303.257 81.6108C307.277 78.5478 310.625 77.3005 313.3 77.8688C315.839 78.4079 317.374 79.958 317.905 82.519C318.505 85.0945 317.811 88.7008 315.822 93.3378L311.397 103.537C311.213 104.069 311.249 104.403 311.507 104.539C311.765 104.676 312.047 104.531 312.352 104.107C316.302 98.3359 319.799 93.856 322.842 90.6671C325.971 87.4147 328.73 85.2263 331.12 84.1018C333.51 82.9773 335.596 82.6045 337.38 82.9834C339.918 83.5225 341.522 85.0872 342.191 87.6773C342.859 90.2674 342.097 93.8591 339.902 98.4524L324.867 130.756C323.922 132.84 323.54 134.473 323.719 135.653C323.899 136.834 324.537 137.541 325.635 137.774C327.007 138.065 328.56 137.334 330.295 135.581C332.115 133.764 334.359 130.12 337.027 124.648C337.415 123.833 337.952 123.498 338.638 123.644C339.187 123.761 339.446 124.06 339.415 124.543C339.453 125.041 339.336 125.588 339.067 126.183C336.635 131.216 334.342 135.094 332.186 137.819C330.046 140.465 328.063 142.207 326.237 143.043C324.478 143.893 322.811 144.151 321.233 143.816Z" fill="white"/>
<path d="M365.938 78.3617C364.346 78.4789 362.969 78.0791 361.807 77.1621C360.722 76.1623 360.127 74.9337 360.019 73.4763C359.867 71.4053 360.415 69.7068 361.665 68.3808C362.999 67.0487 364.545 66.3178 366.305 66.1882C367.98 66.0648 369.399 66.4616 370.561 67.3785C371.802 68.2126 372.479 69.3967 372.592 70.9308C372.75 73.0785 372.162 74.8184 370.828 76.1506C369.495 77.4827 367.865 78.2198 365.938 78.3617ZM360.846 149.88C358.082 150.084 356.045 149.308 354.737 147.554C353.423 145.723 353.152 142.619 353.925 138.244L360.537 101.086C360.831 99.3675 360.777 98.0605 360.374 97.1647C360.05 96.1861 359.259 95.743 358.002 95.8356C356.494 95.9466 354.895 97.1055 353.205 99.3123C351.593 101.436 349.865 105.419 348.021 111.262C347.759 112.284 347.21 112.826 346.372 112.887C345.115 112.98 344.73 112.314 345.214 110.891C346.667 105.462 348.289 101.178 350.079 98.0387C351.953 94.893 353.892 92.6293 355.896 91.2478C357.9 89.8663 359.781 89.1108 361.54 88.9812C364.472 88.7652 366.595 89.5729 367.909 91.4041C369.218 93.1586 369.485 96.2237 368.713 100.599L362.101 137.757C361.806 139.475 361.821 140.824 362.146 141.803C362.549 142.698 363.379 143.1 364.635 143.007C366.143 142.896 367.703 141.779 369.315 139.655C371.006 137.448 372.773 133.423 374.617 127.581C374.878 126.559 375.428 126.017 376.266 125.955C377.522 125.863 377.908 126.529 377.423 127.952C376.048 133.298 374.385 137.585 372.433 140.814C370.559 143.959 368.62 146.223 366.616 147.604C364.612 148.986 362.689 149.745 360.846 149.88Z" fill="white"/>
<path d="M399.039 145.055C395.966 145.723 393.564 145.219 391.835 143.544C390.089 141.788 389.324 138.494 389.543 133.663L392.801 63.1202C392.947 61.5506 392.726 60.5309 392.136 60.061C391.64 59.5709 390.731 59.4266 389.409 59.6282L385.138 60.1713C383.724 60.3931 383.003 59.9944 382.977 58.975C383.004 58.2003 383.558 57.6101 384.64 57.2042C387.887 55.9865 390.743 54.7682 393.209 53.5493C395.657 52.2487 397.549 50.8555 398.884 49.3695C399.523 48.7182 400.168 48.3218 400.82 48.1802C401.938 47.9375 402.49 48.4583 402.476 49.7426L398.65 131.813C398.574 133.709 398.791 135.157 399.301 136.157C399.886 137.055 400.877 137.352 402.274 137.049C403.95 136.685 405.536 135.23 407.031 132.684C408.602 130.036 409.989 125.421 411.192 118.838C411.334 117.697 411.871 117.025 412.802 116.823C414.199 116.519 414.731 117.173 414.398 118.783C413.647 124.755 412.415 129.635 410.703 133.424C409.065 137.111 407.224 139.86 405.18 141.671C403.135 143.482 401.088 144.61 399.039 145.055Z" fill="white"/>
<path d="M436.909 127.124C433.785 127.903 430.941 127.166 428.377 124.914C425.797 122.596 423.878 118.914 422.62 113.868C421.528 109.487 421.122 104.969 421.402 100.316C421.741 95.6484 422.592 91.2762 423.954 87.1995C425.317 83.1229 427.059 79.6919 429.182 76.9065C431.363 74.1065 433.721 72.3907 436.255 71.7592C439.025 71.0689 441.189 71.3404 442.749 72.5736C444.35 73.7257 445.465 75.5632 446.094 78.086C446.839 81.0734 446.64 84.2959 445.499 87.7533C444.4 91.1297 442.46 94.3983 439.68 97.559C436.959 100.705 433.5 103.4 429.302 105.645C428.089 106.3 427.618 107.299 427.89 108.642C427.947 109.121 428.041 109.626 428.174 110.157C428.289 110.622 428.405 111.087 428.521 111.551C429.464 115.336 430.735 118.051 432.335 119.697C433.993 121.329 435.824 121.895 437.828 121.395C440.067 120.837 441.929 119.139 443.413 116.302C444.955 113.449 445.904 109.723 446.259 105.121C446.287 104.48 446.566 104.093 447.097 103.961C447.45 103.872 447.698 103.987 447.84 104.304C448.04 104.607 448.14 105.005 448.138 105.499C447.708 111.811 446.51 116.799 444.543 120.462C442.636 124.111 440.091 126.331 436.909 127.124ZM427.21 102.148C427.208 102.642 427.366 103.025 427.685 103.298C428.046 103.491 428.416 103.469 428.795 103.233C432.168 101.194 434.81 98.7375 436.723 95.8634C438.619 92.923 439.83 89.8712 440.356 86.7081C440.941 83.5303 440.895 80.5804 440.216 77.8585C439.521 75.0702 438.202 73.9183 436.257 74.403C434.548 74.8289 432.973 76.4201 431.532 79.1767C430.09 81.9332 428.97 85.3502 428.171 89.4274C427.372 93.5047 427.052 97.7447 427.21 102.148Z" fill="white"/>
<path d="M258.188 262.254H250.602V193.656H224.996V186.912H283.899V193.656H258.188V262.254Z" fill="white"/>
<path d="M301.483 263.729C285.361 263.729 275.666 252.138 275.666 235.489C275.666 218.735 285.361 207.144 301.483 207.144C317.605 207.144 327.299 218.735 327.299 235.489C327.299 252.138 317.605 263.729 301.483 263.729ZM301.483 257.723C314.022 257.723 320.134 247.818 320.134 235.489C320.134 223.055 314.022 213.15 301.483 213.15C288.943 213.15 282.832 223.055 282.832 235.489C282.832 247.818 288.943 257.723 301.483 257.723Z" fill="white"/>
<path d="M376.267 216.943V208.514H383.116V258.882C383.116 274.161 373.633 281.537 358.881 281.537C344.339 281.537 336.647 274.477 335.804 265.099H342.969C344.023 270.894 348.554 275.531 358.986 275.531C369.839 275.531 376.267 270.789 376.267 259.83V249.82H376.056C372.895 255.405 366.994 259.725 357.932 259.725C345.077 259.725 334.329 251.295 334.329 233.382C334.329 215.679 345.077 207.249 357.932 207.249C366.994 207.249 372.895 211.569 376.056 216.943H376.267ZM358.881 253.719C368.786 253.719 376.267 247.185 376.267 233.382C376.267 219.788 368.786 213.255 358.881 213.255C347.816 213.255 341.494 221.264 341.494 233.382C341.494 245.71 347.816 253.719 358.881 253.719Z" fill="white"/>
<path d="M442.614 232.96C442.614 234.435 442.614 235.911 442.509 236.754H399.938C400.044 247.607 405.839 257.828 418.484 257.828C429.548 257.828 433.868 250.241 434.922 245.816H441.877C439.242 255.615 431.866 263.729 418.378 263.729C401.94 263.729 392.773 251.716 392.773 235.384C392.773 218.208 402.889 207.144 418.378 207.144C433.868 207.144 442.614 217.997 442.614 232.96ZM399.938 230.747H435.343C435.343 221.158 429.126 213.045 418.062 213.045C407.63 213.045 400.465 220.737 399.938 230.747Z" fill="white"/>
<path d="M472.147 208.514V214.52H461.294V248.45C461.294 255.088 462.769 256.669 468.038 256.669C469.724 256.669 470.567 256.564 472.147 256.458V262.254C470.04 262.57 468.776 262.675 467.09 262.675C459.292 262.675 454.445 260.041 454.445 248.345V214.52H446.542V208.514H454.445V190.6H461.294V208.514H472.147Z" fill="white"/>
<path d="M506.528 207.249C516.117 207.249 524.125 212.623 524.125 224.53V262.254H517.276V226.005C517.276 219.156 514.115 213.255 504.842 213.255C494.621 213.255 487.877 220.421 487.877 228.324V262.254H481.028V186.912H487.877V216.206H488.088C491.143 211.78 496.939 207.249 506.528 207.249Z" fill="white"/>
<path d="M583.386 232.96C583.386 234.435 583.386 235.911 583.281 236.754H540.71C540.815 247.607 546.611 257.828 559.255 257.828C570.32 257.828 574.64 250.241 575.694 245.816H582.648C580.014 255.615 572.638 263.729 559.15 263.729C542.712 263.729 533.544 251.716 533.544 235.384C533.544 218.208 543.66 207.144 559.15 207.144C574.64 207.144 583.386 217.997 583.386 232.96ZM540.71 230.747H576.115C576.115 221.158 569.898 213.045 558.834 213.045C548.402 213.045 541.237 220.737 540.71 230.747Z" fill="white"/>
<path d="M615.325 207.249C617.222 207.249 618.697 207.354 619.962 207.565V214.309C618.908 214.098 617.749 213.993 616.695 213.993C607.001 213.993 599.836 221.791 599.836 232.222V262.254H592.986V208.514H599.836V219.472H600.046C602.786 212.412 607.739 207.249 615.325 207.249Z" fill="white"/>
<path d="M48.5282 128.226H0.161987V52.8848H7.85421V121.483H48.5282V128.226Z" fill="white"/>
<path d="M99.7024 98.9328C99.7024 100.408 99.7024 101.883 99.597 102.726H57.0263C57.1317 113.58 62.9272 123.801 75.572 123.801C86.6362 123.801 90.9564 116.214 92.0102 111.788H98.9648C96.3305 121.588 88.9544 129.702 75.4666 129.702C59.0284 129.702 49.861 117.689 49.861 101.356C49.861 84.1805 59.9768 73.1164 75.4666 73.1164C90.9564 73.1164 99.7024 83.9698 99.7024 98.9328ZM57.0263 96.7199H92.4317C92.4317 87.131 86.2147 79.0173 75.1505 79.0173C64.7186 79.0173 57.5532 86.7095 57.0263 96.7199Z" fill="white"/>
<path d="M129.236 74.4862V80.4925H118.382V114.423C118.382 121.061 119.857 122.642 125.126 122.642C126.812 122.642 127.655 122.536 129.236 122.431V128.226C127.128 128.543 125.864 128.648 124.178 128.648C116.38 128.648 111.533 126.014 111.533 114.317V80.4925H103.63V74.4862H111.533V56.5728H118.382V74.4862H129.236Z" fill="white"/>
<path d="M157.926 129.596C142.858 129.596 134.638 121.377 134.322 110.629H141.488C141.909 118.005 146.756 123.59 158.031 123.59C168.252 123.59 171.73 118.848 171.73 113.58C171.73 105.677 163.721 104.834 156.24 103.042C146.335 100.513 136.324 98.0898 136.324 87.6579C136.324 78.9119 143.279 73.2218 155.397 73.2218C169.412 73.2218 175.945 80.7032 176.893 89.5546H169.728C168.779 84.8128 165.934 79.228 155.502 79.228C147.81 79.228 143.49 82.1785 143.49 87.2364C143.49 93.9802 150.761 94.9286 158.874 96.9307C168.99 99.3543 179.001 102.199 179.001 113.369C179.001 123.169 171.203 129.596 157.926 129.596Z" fill="white"/>
<path d="M494.685 119.761C492.283 120.146 482.279 120.627 475.46 116.324C460.353 136.076 430.868 174.043 366.719 174.043C325.576 174.043 281.539 157.134 243.27 141.411L243.285 141.53C244.169 148.471 246.232 164.66 241.498 183.912H230.429C231.383 179.225 231.965 174.575 232.225 170.123C233.043 156.137 232.211 149.228 231.462 143.005C231.246 141.211 231.037 139.472 230.876 137.639C209.708 127.77 191.082 125.213 175.431 127.409C178.091 125.282 179.981 122.584 181.032 119.475C200.22 118.219 210.26 121.281 230.041 127.618C229.56 120.517 228.92 114.319 228.309 108.395C227.003 95.7395 225.826 84.3343 226.599 68.0353C227.775 43.2184 235.195 -8.44518 283.201 2.16983C298.299 5.50821 303.417 22.8858 303.101 27.1809C302.785 31.4761 299.631 50.9952 288.891 50.9952C276.172 50.9952 280.059 43.1224 281.367 40.8772C281.566 40.5345 283.033 37.6274 283.201 37.2902C294.54 14.5919 281.165 7.18662 272.639 7.18662C237.041 7.18662 238.208 63.4548 239.042 78.7235C239.573 88.4497 240.201 95.3062 240.89 102.84C241.627 110.885 242.434 119.703 243.27 133.612C283.441 149.609 324.249 161.271 364.476 162.72C420.805 164.75 459.824 126.307 471.574 112.335C466.204 106.866 465.425 95.6489 465.574 93.0869C465.699 90.9536 467.224 88.94 469.138 88.0531C470.106 87.6042 471.586 87.2912 473.009 88.0603C474.344 88.7816 474.143 90.7384 474.003 92.1045C473.977 92.3571 473.953 92.5895 473.942 92.7902C473.92 93.1558 473.876 93.6294 473.824 94.1878C473.45 98.1943 472.669 106.571 476.998 110.847C481.145 114.765 487.959 113.003 491.797 112.01C492.617 111.798 493.301 111.621 493.795 111.543C495.139 111.327 497.968 110.999 498.94 112.765C500.899 116.324 498.345 119.176 494.685 119.761Z" fill="white"/>
<path d="M168.505 120.734C168.901 120.678 169.299 120.625 169.699 120.576C172.551 120.225 175.212 119.943 177.717 119.727C174.997 125.854 168.056 129.596 157.926 129.596C153.815 129.596 150.213 128.984 147.143 127.876C150.157 126.177 153.355 124.732 156.722 123.564C157.148 123.581 157.585 123.59 158.031 123.59C162.98 123.59 166.347 122.479 168.505 120.734Z" fill="white"/>
<path d="M143.961 129.81C126.678 141.099 116.262 161.283 116.262 185.523C116.261 215.914 137.426 242.295 169.699 242.295C184.184 243.387 215.767 237.812 232.225 207.763C234.271 204.028 235.993 200.314 237.438 196.656H226.866C218.967 218.452 201.723 237.812 169.699 237.812C157.998 237.812 123.166 225.828 120.082 188.954C118.399 168.821 131.806 143.798 157.121 132.589C152.097 132.496 147.675 131.533 143.961 129.81Z" fill="white"/>
<path d="M229.767 186.912H240.711C240.093 189.128 239.382 191.379 238.568 193.656H227.89C228.608 191.419 229.232 189.165 229.767 186.912Z" fill="white"/>
</svg>
