<svg viewBox="0 0 298 143" fill="none" xmlns="http://www.w3.org/2000/svg">
<path d="M229.182 40.2258C229.043 39.2953 228.932 38.6204 228.85 38.2012C229.531 38.1525 230.435 38.0373 231.564 37.8556C232.684 37.6319 233.821 37.3832 234.975 37.1093C236.17 36.8272 237.299 36.5365 238.361 36.2373C239.415 35.8962 240.213 35.5628 240.753 35.2372C241.832 34.5861 242.552 33.7455 242.911 32.7156C243.262 31.6437 243.318 30.6089 243.08 29.6111C242.883 28.605 242.437 27.7575 241.742 27.0687C241.08 26.3297 240.243 26.0176 239.23 26.1326C237.073 26.3455 234.945 26.705 232.845 27.2113C230.787 27.7093 228.691 28.1276 226.558 28.4662C226.172 27.1496 225.863 25.9044 225.634 24.7306C225.446 23.5486 225.262 22.3875 225.082 21.2473C224.935 20.0569 224.751 18.8958 224.53 17.764C224.342 16.5819 224.083 15.3703 223.754 14.1293C224.958 13.8891 226.107 13.7032 227.202 13.5717C228.331 13.3899 229.418 13.2165 230.463 13.0513C231.55 12.8779 232.633 12.6835 233.712 12.4681C234.783 12.2108 235.904 11.8782 237.074 11.4703C238.61 10.9459 239.637 10.0223 240.154 8.69942C240.713 7.36825 240.84 6.03607 240.536 4.70288C240.265 3.53738 239.769 2.65628 239.049 2.05959C238.362 1.4127 237.567 0.983442 236.663 0.771821C235.751 0.518279 234.785 0.428027 233.765 0.501064C232.744 0.574101 231.777 0.701736 230.865 0.88397C227.81 1.58078 224.76 2.18961 221.715 2.71045C218.661 3.18938 215.649 3.76896 212.677 4.4492C211.482 4.73134 210.618 5.38299 210.085 6.40415C209.585 7.3751 209.479 8.48525 209.766 9.7346C209.898 10.1874 210.05 10.6362 210.223 11.0807C210.397 11.5253 210.528 11.9781 210.619 12.4393L211.787 18.413C212.238 20.7186 212.701 23.1961 213.176 25.8454L216.349 42.0689C216.857 44.668 218.634 53.0902 219.093 55.4377C219.274 56.36 219.38 57.1229 219.411 57.7263C219.485 58.3215 219.579 58.9125 219.694 59.4994C219.898 60.7653 220.414 61.7512 221.242 62.4571C222.12 63.1967 223.164 63.4673 224.376 63.269C227.38 62.7564 230.384 62.1349 233.389 61.4045C236.401 60.7159 239.451 60.1071 242.538 59.578C243.451 59.3957 244.393 59.1423 245.365 58.8178C246.336 58.4932 247.195 58.0385 247.943 57.4536C248.699 56.9107 249.278 56.229 249.678 55.4087C250.111 54.5381 250.234 53.5118 250.045 52.3298C249.825 50.98 249.205 49.7969 248.187 48.7805C247.211 47.7558 245.914 47.2961 244.296 47.4012C243.06 47.4738 241.902 47.6177 240.823 47.8331C239.736 48.0065 238.657 48.2219 237.587 48.4792C236.557 48.7282 235.491 49.0064 234.387 49.3139C233.316 49.5712 232.179 49.82 230.976 50.0602C230.688 49.0287 230.429 47.9261 230.2 46.7523C230.003 45.5283 229.819 44.3672 229.648 43.269C229.468 42.1288 229.312 41.1145 229.182 40.2258Z" fill="currentColor"/>
<path d="M189.272 56.4352C190.404 56.1736 191.619 55.8657 192.917 55.5116C194.215 55.1574 195.512 54.8033 196.81 54.4491C198.106 54.0523 199.383 53.699 200.64 53.3893C201.895 53.037 203.047 52.7318 204.094 52.4737C204.852 52.3562 205.609 52.2387 206.366 52.1212C207.165 52.0019 207.927 51.9912 208.651 52.089C210.133 52.1119 211.404 52.6357 212.462 53.6602C213.563 54.683 214.248 55.8944 214.518 57.2944C214.882 58.947 214.777 60.4911 214.201 61.9268C213.668 63.3606 212.676 64.4503 211.225 65.1959C210.522 65.6104 209.774 65.9414 208.98 66.1888C208.186 66.4361 207.41 66.6186 206.653 66.736C203.619 67.0779 200.656 67.6093 197.765 68.33C194.872 69.0081 192.006 69.8348 189.168 70.8099C186.24 71.6606 183.795 71.4002 181.833 70.0289C179.871 68.6575 178.589 66.3166 177.986 63.0061C177.925 62.5382 177.863 62.0703 177.801 61.6025C177.738 61.0919 177.697 60.6019 177.677 60.1322C177.545 56.9301 177.426 53.5351 177.319 49.947C177.212 46.3162 177.084 42.7076 176.935 39.1213C176.829 35.5332 176.685 32.0536 176.504 28.6825C176.364 25.3097 176.195 22.2375 175.996 19.4659C175.985 18.1833 176.236 17.0821 176.748 16.1624C177.259 15.1999 177.926 14.4447 178.75 13.8967C179.616 13.3469 180.556 13.0292 181.568 12.9437C182.579 12.8155 183.559 12.9666 184.508 13.397C185.497 13.783 186.394 14.4722 187.197 15.4648C188 16.4573 188.604 17.7577 189.009 19.3658C189.414 20.9739 189.685 22.9085 189.821 25.1695C189.997 27.386 190.072 29.7137 190.046 32.1527C190.062 34.5898 190.017 37.0723 189.909 39.6002C189.843 42.0836 189.75 44.4398 189.63 46.6688C189.509 48.8551 189.399 50.8058 189.301 52.5207C189.244 54.2338 189.235 55.5386 189.272 56.4352Z" fill="currentColor"/>
<path d="M152.452 39.9612C152.69 36.2475 153.014 32.4498 153.425 28.5684C153.689 25.7526 154.728 23.3362 156.542 21.3191C157.449 20.3105 158.414 19.6023 159.437 19.1943C160.503 18.7443 161.542 18.6144 162.554 18.8046C163.565 18.9947 164.509 19.4613 165.383 20.2045C166.259 20.9049 166.938 21.9008 167.422 23.1921C167.988 24.6132 168.278 26.0719 168.292 27.568C168.307 29.0641 168.194 30.5579 167.955 32.0492C167.321 36.5675 166.709 41.0435 166.119 45.4772C165.529 49.9109 164.96 54.3663 164.412 58.8435C164.176 60.164 164.024 61.486 163.957 62.8096C163.933 64.0914 163.867 65.3723 163.759 66.6524C163.705 67.2924 163.651 67.9325 163.596 68.5726C163.543 69.1699 163.447 69.7664 163.309 70.3622C163.072 71.7681 162.522 72.8689 161.662 73.6646C160.8 74.503 159.755 74.9534 158.527 75.0156C157.426 75.0802 156.395 74.8042 155.433 74.1876C154.514 73.5718 153.854 72.6404 153.454 71.3934C153.136 70.3189 152.882 69.2029 152.692 68.0453C152.502 66.8878 152.332 65.752 152.184 64.6379C151.923 62.7097 151.77 60.6981 151.725 58.603C151.679 56.508 151.697 54.4141 151.778 52.3214C151.86 50.186 151.963 48.0724 152.086 45.9805C152.252 43.8894 152.374 41.883 152.452 39.9612Z" fill="currentColor"/>
<path d="M126.641 25.0449C124.632 26.3711 122.821 27.7771 121.207 29.263C119.593 30.7488 118.049 32.2995 116.574 33.915C115.152 35.5012 113.764 37.1199 112.411 38.7709C111.058 40.4219 109.659 42.0816 108.213 43.75C107.303 44.7744 106.398 45.3996 105.497 45.6257C104.648 45.8226 103.512 45.7135 102.09 45.2982C100.923 44.913 100.045 44.3673 99.4543 43.6611C98.8639 42.955 98.4685 42.1056 98.2681 41.113C97.9894 39.1634 97.7251 37.2402 97.4752 35.3436C97.2777 33.4177 97.1267 31.4832 97.0222 29.54C96.907 27.3268 96.7433 25.7444 96.5312 24.7929C96.3715 23.8121 96.1201 23.3829 95.7769 23.5051C95.4455 23.5862 95.04 24.1573 94.5603 25.2182C94.1331 26.2499 93.6407 27.663 93.0833 29.4573C91.8231 33.0926 90.888 36.8228 90.2779 40.6479C89.7202 44.4438 89.2031 48.2516 88.7267 52.0713C88.6318 52.7108 88.5048 53.3854 88.3458 54.0952C88.1985 54.7638 88.0426 55.3855 87.8782 55.9603C87.5033 56.9628 86.946 57.7564 86.2064 58.3411C85.4667 58.9257 84.51 59.2691 83.336 59.3711C82.1215 59.4612 81.1286 59.238 80.3575 58.7015C79.5747 58.206 78.9522 57.5349 78.4899 56.6883C78.016 55.8827 77.6729 55.0041 77.4609 54.0525C77.2488 53.101 77.1207 52.2407 77.0766 51.4716C76.76 48.5769 76.7017 45.7798 76.9016 43.0804C77.154 40.3518 77.4876 37.6469 77.9024 34.9658C78.6769 30.566 79.8027 26.2465 81.2797 22.0073C82.7974 17.78 84.7846 13.9122 87.2413 10.4039C88.7875 8.23107 90.457 6.62797 92.2496 5.59461C94.0946 4.53206 95.8709 4.09443 97.5785 4.28169C99.286 4.46895 100.832 5.29844 102.216 6.77016C103.641 8.25374 104.712 10.4347 105.429 13.3131C106.593 18.6346 107.364 23.7084 107.745 28.5344C109.883 26.4456 112.077 24.3951 114.326 22.3829C116.586 20.3297 118.93 18.5232 121.358 16.9636C123.838 15.3747 126.418 14.1267 129.1 13.2193C131.781 12.312 134.617 11.9393 137.609 12.1012C139.729 12.231 141.543 12.7385 143.051 13.6236C144.6 14.5207 145.81 15.6749 146.683 17.0863C147.609 18.4685 148.194 20.0405 148.438 21.8021C148.683 23.5638 148.593 25.3391 148.169 27.128C147.387 30.3245 146.378 33.3883 145.143 36.3193C143.949 39.2621 142.7 42.1667 141.395 45.0329C140.143 47.8699 138.897 50.6864 137.657 53.4824C136.458 56.2902 135.435 59.172 134.589 62.1276C134.343 62.9897 134.07 63.8664 133.771 64.7576C133.472 65.6489 133.103 66.4754 132.665 67.2371C131.906 68.661 130.891 69.7438 129.622 70.4853C128.383 71.2797 126.825 71.492 124.949 71.1223C123.155 70.7763 121.873 70.0239 121.104 68.8652C120.323 67.7475 119.845 66.4958 119.669 65.11C119.505 63.6832 119.521 62.2422 119.717 60.7872C119.965 59.3029 120.19 58.0563 120.391 57.0474C120.921 54.5779 121.64 52.1413 122.548 49.7376C123.497 47.3457 124.512 44.9511 125.594 42.5538C126.717 40.1683 127.834 37.8034 128.945 35.459C130.108 33.0854 131.199 30.735 132.217 28.4079C132.913 26.7431 133.304 25.4559 133.388 24.5464C133.472 23.6369 133.256 23.0844 132.739 22.8891C132.275 22.6647 131.522 22.7562 130.481 23.1639C129.452 23.5305 128.172 24.1575 126.641 25.0449Z" fill="currentColor"/>
<path fill-rule="evenodd" clip-rule="evenodd" d="M8.88915 134.134L8.90155 134.146L8.91424 134.159C12.753 137.9 17.4534 140.371 22.9681 141.583C27.629 142.608 32.3109 142.161 36.972 140.288L36.9889 140.281L37.0057 140.274C41.6561 138.28 45.6585 135.281 49.0034 131.3C52.3415 127.327 54.5575 122.992 55.6093 118.304C56.9046 112.53 56.4514 106.738 54.2803 100.965C52.3782 95.9073 49.5466 90.2875 45.8055 84.111C49.0844 83.7911 53.0501 83.8131 57.7225 84.197L57.7401 84.1984L57.7577 84.1995C63.6615 84.5538 68.987 85.2567 73.7404 86.3014C82.2294 88.1673 89.9622 90.8405 96.947 94.3134C97.4301 94.5676 97.9401 94.8273 98.4784 95.0929C118.079 104.763 146.466 113.83 193.473 104.745L193.507 104.738L193.541 104.732C240.502 95.1893 269.817 68.2821 279.256 58.5944C284.641 61.2312 290.324 61.027 292.459 60.8571C293.545 60.7706 294.469 60.2594 295.116 59.7403C295.785 59.2025 296.41 58.4561 296.789 57.5585C297.149 56.7066 297.384 55.438 296.742 54.2227C296.005 52.8283 294.582 52.3559 293.387 52.451C290.898 52.6491 284.374 52.664 280.288 48.1415C276.299 43.5235 276.838 36.7865 277.199 34.1757C277.354 33.0526 277.036 31.6008 275.707 30.7408C274.512 29.9669 273.192 30.1386 272.311 30.465C271.388 30.807 270.617 31.4112 270.058 32.0576C269.512 32.6879 268.979 33.5785 268.834 34.6341C268.524 36.8719 267.824 43.2209 270.403 49.257C270.159 49.4499 269.925 49.6605 269.704 49.8889C261.453 58.4047 234.52 83.3956 191.256 92.1968C148.331 100.483 120.23 91.2981 104.229 83.2495C103.948 83.1036 103.632 82.9548 103.286 82.8064C94.6169 78.5649 85.3313 75.358 75.4334 73.1825C61.4566 70.1105 48.9776 69.7521 38.0376 72.1883C36.2438 69.3644 35.0947 67.4015 34.5474 66.2567L34.5309 66.2223L34.5129 66.1886C32.7755 62.9609 31.5314 60.4199 30.7615 58.5473L30.7336 58.4795L30.6997 58.4146C26.7642 50.8892 24.263 45.5237 23.1372 42.256C22.197 39.1828 22.093 35.9742 22.8498 32.6003C24.72 24.2639 28.1052 19.0059 32.7523 16.3681C37.7193 13.653 43.1285 12.9272 49.0624 14.2314C52.1876 14.9183 54.2693 16.2444 55.5398 18.0795C56.7904 19.8859 57.1928 22.1552 56.5392 25.0691C56.1844 26.6504 55.311 28.6545 53.8252 31.1086C53.0566 32.3779 52.4601 33.3939 52.0413 34.149C51.8326 34.5254 51.66 34.8515 51.5299 35.1197C51.4224 35.3415 51.2754 35.6587 51.208 35.959C50.9131 37.2735 50.9697 38.5896 51.3728 39.8791L51.415 40.014L51.4803 40.1394C52.0926 41.3161 52.9733 42.2455 54.1194 42.8693C54.9101 43.3366 55.6933 43.6965 56.4432 43.8613C57.786 44.1565 59.0977 44.135 60.3109 43.6831C61.5289 43.2294 62.5121 42.3922 63.2764 41.2855C66.21 37.1177 68.2088 32.7141 69.2486 28.0793C70.6689 21.748 69.8272 16.0174 66.6184 11.0147C63.5319 6.02529 58.7068 2.86019 52.3281 1.45818C46.2042 0.112162 40.2381 0.147203 34.4509 1.58312C28.6002 3.0348 23.4925 6.09062 19.1449 10.7022C14.7532 15.3606 11.739 21.5447 10.0312 29.1572C8.42927 36.298 8.71091 43.0079 10.9355 49.2415C13.0914 55.2826 16.3108 61.8002 20.5729 68.7905L20.5767 68.7967L22.8134 72.5406L25.0807 76.4522L24.0271 76.9791L24.011 76.9876C18.3895 79.9605 13.424 83.7824 9.12092 88.4487L9.11063 88.4598L9.10056 88.4711C4.89848 93.2053 2.1479 98.3216 0.915142 103.817C-0.360816 109.504 -0.30637 115.024 1.10279 120.353C2.51106 125.678 5.10791 130.282 8.88915 134.134ZM36.172 125.53C39.5313 122.577 41.6379 119.08 42.5503 115.012C43.3274 111.548 42.7771 107.468 40.6812 102.691C38.6774 98.1239 35.8624 93.1148 32.2204 87.6604C27.7808 89.5606 23.8575 92.177 20.4403 95.5122C16.8881 99.0343 14.7729 102.628 13.9523 106.286C12.6786 111.963 13.2224 116.786 15.4352 120.869C17.6333 124.925 21.069 127.47 25.8844 128.529C29.5181 129.327 32.9058 128.4 36.172 125.53Z" fill="currentColor"/>
</svg>
