<svg className="blob pink" viewBox="0 0 440 440" xmlns="http://www.w3.org/2000/svg">
<path d="M220,301.73728972173257C233.42494092106227,294.3607498318689,244.75044129234033,323.36901881950473,260.0683672590042,323.428378406491C273.77722595654,323.4815025821862,282.49696863943444,308.11992490286593,294.77755061843504,302.02706553930835C310.82024192743825,294.067682007985,328.00450275442694,289.7349352561004,344.0423206625505,281.76573658995216C370.89313013148956,268.4235577330339,419.625763412152,268.6085514180318,422.15624898296056,238.73253514137278C424.7004659817705,208.69439963700356,364.1962803914093,210.0800209690207,352.4661675953636,182.3101257854244C342.6552481366591,159.08373318715613,381.87010451662815,129.34314778127487,367.2674865093703,108.78875649648646C352.9347841435186,88.61429377687644,314.9306812150444,113.68191409200811,294.15606628042775,100.23384071879106C272.7832556019465,86.39853608856366,279.86498259303374,34.38525890010021,254.44172766236306,35.75303053291172C224.47372643159113,37.36530960918612,228.38191060117433,101.89549934245481,198.5730994740776,105.376206278756C165.70846786624156,109.21373440789341,148.28845623993993,45.00188068915126,115.93320492450306,51.92635505011315C90.44339633798708,57.38152905888203,96.63238990745957,101.04993374594673,96.99953820393637,127.11436290469804C97.31758144748969,149.69274790760693,123.7755992567579,169.14712217760356,117.8914838164063,190.9476223170262C112.12278902674093,212.3204918402781,68.74071961858118,211.9434804209041,68.13067823046376,234.07276510746922C67.56760071196292,254.49843285759053,97.65960266911746,262.2827573746038,115.65831381244129,271.95598623106C129.69730746668031,279.501104181473,155.5739104331412,269.41097815989457,161.44998843436778,284.2263031658777C173.24939191238897,313.97607799308753,127.5980434587848,370.1979315057017,158.2603751437096,379.36834263882344C190.20885474402414,388.9234115756415,190.77446528589266,317.79570844318727,220,301.73728972173257"  />
</svg>